<?xml version="1.0" standalone="no"?>
<!DOCTYPE svg PUBLIC "-//W3C//DTD SVG 20010904//EN"
 "http://www.w3.org/TR/2001/REC-SVG-20010904/DTD/svg10.dtd">
<svg version="1.0" xmlns="http://www.w3.org/2000/svg"
 width="200.000000pt" height="200.000000pt" viewBox="0 0 200.000000 200.000000"
 preserveAspectRatio="xMidYMid meet">

<g transform="translate(0.000000,200.000000) scale(0.100000,-0.100000)"
fill="#000000" stroke="none">
<path d="M1718 1711 c-20 -25 -102 -58 -558 -227 -517 -191 -536 -199 -575
-240 -22 -24 -138 -126 -258 -227 -176 -149 -222 -183 -241 -180 -32 7 -66
-28 -66 -67 0 -38 33 -72 65 -68 32 4 565 -355 565 -380 0 -33 29 -62 63 -62
38 0 50 7 65 37 23 42 -14 93 -67 94 -30 0 -81 31 -296 178 -217 148 -260 181
-260 201 0 19 49 65 226 216 l225 192 39 -11 c33 -10 73 -53 291 -311 221
-261 252 -301 248 -325 -8 -37 28 -81 67 -81 37 0 69 32 69 68 0 37 -18 61
-55 70 -23 6 -89 78 -283 306 -139 165 -251 300 -250 301 2 2 260 -54 575
-123 526 -116 572 -127 582 -148 13 -29 54 -40 87 -25 21 9 24 17 24 59 0 42
-4 51 -25 62 -20 11 -32 11 -63 1 -35 -12 -77 -4 -598 109 -307 68 -562 125
-566 129 -4 3 214 88 484 189 332 123 495 179 502 172 19 -19 74 -12 90 12 54
77 -47 152 -106 79z"/>
</g>
</svg>
